<?xml version="1.0" standalone="no"?>
<!DOCTYPE svg PUBLIC "-//W3C//DTD SVG 20010904//EN"
 "http://www.w3.org/TR/2001/REC-SVG-20010904/DTD/svg10.dtd">
<svg version="1.0" xmlns="http://www.w3.org/2000/svg"
 width="700.000000pt" height="700.000000pt" viewBox="0 0 700.000000 700.000000"
 preserveAspectRatio="xMidYMid meet">
<metadata>
Created by potrace 1.11, written by Peter Selinger 2001-2013
</metadata>
<g transform="translate(0.000000,700.000000) scale(0.100000,-0.100000)"
fill="#000000" stroke="none">
<path d="M1190 6849 c-319 -69 -543 -282 -627 -597 -23 -86 -26 -117 -27 -267
0 -143 3 -184 22 -258 53 -213 167 -380 336 -491 135 -89 267 -132 436 -142
52 -3 105 -7 117 -10 12 -2 77 -65 145 -140 576 -635 1022 -1417 1335 -2339
243 -719 396 -1493 443 -2240 12 -188 18 -205 81 -238 44 -23 94 -16 131 20
35 33 48 78 48 163 0 163 48 595 101 913 230 1382 753 2608 1499 3513 141 171
303 343 340 361 30 15 76 18 315 23 296 5 299 6 347 57 50 53 58 88 58 265 0
185 -8 224 -55 276 -33 37 -33 38 -17 67 14 24 18 65 20 199 2 97 -1 186 -7
210 -9 37 -7 48 14 91 24 46 25 57 25 224 0 165 -2 179 -24 228 -17 36 -38 60
-67 80 l-43 28 -470 3 c-492 3 -521 1 -579 -40 -26 -18 -30 -19 -45 -4 -46 41
-83 46 -319 46 -130 0 -244 -5 -266 -11 -68 -18 -106 -70 -167 -223 -30 -76
-57 -139 -60 -141 -4 -2 -33 61 -64 140 -94 232 -100 235 -433 235 -258 0
-289 -6 -340 -61 -51 -55 -53 -74 -53 -436 0 -185 -4 -333 -8 -328 -5 6 -65
170 -133 365 -133 382 -145 406 -224 441 -35 16 -69 19 -265 19 -198 0 -230
-3 -265 -19 -77 -36 -88 -56 -204 -387 -122 -346 -129 -365 -130 -344 -1 9
-11 34 -22 55 -20 37 -21 53 -19 236 1 122 -3 212 -10 238 -25 93 -134 159
-350 212 -130 32 -393 36 -520 8z m377 -190 c91 -12 203 -41 268 -70 l45 -20
0 -134 c0 -74 -2 -135 -5 -135 -3 0 -37 16 -75 35 -115 58 -208 80 -340 79
-95 0 -125 -4 -171 -22 -149 -59 -229 -201 -229 -407 0 -204 63 -331 197 -397
59 -29 78 -33 167 -36 57 -2 120 1 144 7 l42 12 0 129 0 130 -95 0 -95 0 0
115 0 115 250 0 250 0 -2 -322 -3 -323 -90 -37 c-180 -73 -430 -99 -607 -63
-182 37 -338 156 -417 316 -62 127 -75 190 -74 354 0 161 20 254 75 358 39 73
130 174 197 216 144 93 352 130 568 100z m1565 -664 c125 -357 228 -656 228
-662 0 -10 -38 -13 -159 -13 l-159 0 -39 118 -40 117 -253 0 -253 0 -39 -117
-40 -118 -159 0 c-115 0 -159 3 -159 12 0 9 413 1195 451 1295 l9 23 192 -2
191 -3 229 -650z m951 302 c77 -191 143 -344 147 -340 4 4 67 157 140 338 73
182 137 336 143 343 7 9 61 12 208 12 l199 0 0 -665 0 -665 -150 0 -150 0 0
477 c0 262 -3 474 -6 470 -4 -3 -68 -158 -143 -344 l-137 -338 -106 -3 -105
-3 -141 348 -141 348 -1 -477 0 -478 -155 0 -155 0 0 665 0 665 206 -2 207 -3
140 -348z m1995 221 l3 -128 -276 0 -275 0 0 -125 0 -125 255 0 255 0 0 -130
0 -130 -255 0 -255 0 0 -150 0 -150 285 0 286 0 -3 -127 -3 -128 -445 0 -445
0 -3 650 c-1 358 0 656 3 663 3 10 96 12 437 10 l433 -3 3 -127z m-1654 -1203
c8 -78 47 -141 106 -175 44 -24 50 -25 255 -25 199 0 212 1 252 22 42 23 42
23 75 4 18 -11 48 -22 66 -26 17 -4 32 -9 32 -11 0 -2 -57 -73 -128 -157 -581
-693 -1012 -1506 -1313 -2476 -74 -240 -185 -676 -230 -908 -19 -95 -36 -173
-39 -173 -3 0 -20 78 -39 173 -41 207 -123 545 -185 757 -308 1059 -786 1969
-1413 2692 -51 59 -93 109 -93 112 0 3 32 15 71 28 56 18 73 20 87 10 67 -47
66 -47 302 -47 217 0 226 1 262 23 26 16 45 40 63 80 14 31 34 73 43 92 l17
35 104 0 104 0 28 -70 c33 -81 87 -138 145 -154 49 -13 865 -14 914 -1 39 11
93 61 108 101 6 14 13 52 17 85 4 32 9 61 10 64 2 3 86 5 188 5 l185 0 6 -60z"/>
<path d="M2623 6067 l-82 -252 85 -3 c46 -1 122 -1 168 0 l84 3 -81 252 c-45
139 -84 253 -87 253 -3 -1 -42 -114 -87 -253z"/>
<path d="M1997 5028 c165 -182 489 -633 611 -850 l27 -48 865 1 865 0 96 157
c147 238 332 493 517 710 l44 52 -1523 0 -1522 0 20 -22z"/>
<path d="M3120 3117 c0 -2 30 -85 66 -186 36 -101 90 -265 120 -365 57 -189
167 -619 179 -700 4 -25 11 -46 15 -46 4 0 13 28 19 63 50 257 196 774 302
1063 32 89 59 165 59 168 0 3 -171 6 -380 6 -209 0 -380 -1 -380 -3z"/>
</g>
</svg>
